<?xml version="1.0" encoding="utf-8"?>
<!-- Generator: Adobe Illustrator 22.0.1, SVG Export Plug-In . SVG Version: 6.00 Build 0)  -->
<svg version="1.1" id="Warstwa_1" xmlns="http://www.w3.org/2000/svg" xmlns:xlink="http://www.w3.org/1999/xlink" x="0px" y="0px"
	 viewBox="0 0 191.6 81.8" style="enable-background:new 0 0 191.6 81.8;" xml:space="preserve">
<style type="text/css">
	.st0{fill:#DD634B;}
	.st1{fill:#6DABDD;}
</style>
<path class="st0" d="M93.4,36.9c0,2-1,3.1-2.6,3.1h-2.9V26.4h3.2c1.5,0,2.2,0.9,2.2,2.6V36.9z M98.5,60.2v-2.8c-0.8,0-1-0.4-1-1.4
	v-9c0-2.4-1-4.5-3.2-5.3c2.3-0.7,3.1-2.6,3.1-5.3v-7.1c0-5-2.7-6.7-6.2-6.7h-7.4v37.3h4.1V43.5h3.1c1.7,0,2.6,1.2,2.6,3.1v9.6
	c0,3.1,1.1,4,3.8,4H98.5z"/>
<path class="st0" d="M111.4,53.2c0,2-1.1,3.4-3.2,3.4c-2.1,0-3.1-1.4-3.1-3.4V29.3c0-1.9,1.1-3.4,3.1-3.4c2.1,0,3.2,1.5,3.2,3.4
	V53.2z M115.3,52.7V29.8c0-4.5-2.8-7.8-7.2-7.8c-4.4,0-7.2,3.3-7.2,7.8v22.8c0,4.5,2.8,7.8,7.2,7.8
	C112.6,60.5,115.3,57.2,115.3,52.7"/>
<path class="st0" d="M128.7,37.7c0,1.8-0.7,2.7-2.1,2.7h-3.3v-14h3.3c1.4,0,2.1,0.9,2.1,2.7V37.7z M132.8,37.4v-7.9
	c0-4.9-2.8-6.8-6.3-6.8h-7.3v37.3h4V44.1h3.3C130,44.1,132.8,42.3,132.8,37.4"/>
<path class="st0" d="M79.8,53V22.6h-3.9v30.5c0,2.3-1,3.5-3.1,3.5c-2.1,0-3.1-1.2-3.1-3.5V22.6h-4V53c0,4.6,3,7.5,7.1,7.5
	C76.8,60.5,79.8,57.6,79.8,53"/>
<polygon class="st0" points="135.8,22.6 135.8,59.9 147.7,59.9 147.7,56.2 139.9,56.2 139.9,42.4 145.5,42.4 145.5,38.8 139.9,38.8 
	139.9,26.4 147.7,26.4 147.7,22.6 "/>
<polygon class="st0" points="24.8,22.6 24.8,59.9 36.6,59.9 36.6,56.2 28.8,56.2 28.8,42.4 34.4,42.4 34.4,38.8 28.8,38.8 
	28.8,26.4 36.6,26.4 36.6,22.6 "/>
<path class="st1" d="M170,53.9c0,1.6-1.2,3-3,3c-1.8,0-3-1.4-3-3V28.7c0-1.6,1.2-3,3-3c1.8,0,3,1.4,3,3V53.9z M173.8,53.1V29.5
	c0-4.4-2.8-7.4-6.8-7.4c-4,0-6.8,3-6.8,7.4v23.6c0,4.4,2.8,7.4,6.8,7.4C171,60.5,173.8,57.5,173.8,53.1"/>
<path class="st1" d="M187,53.9c0,1.6-1.2,3-3,3c-1.8,0-3-1.4-3-3V28.7c0-1.6,1.2-3,3-3c1.8,0,3,1.4,3,3V53.9z M190.8,53.1V29.5
	c0-4.4-2.7-7.4-6.8-7.4c-4,0-6.8,3-6.8,7.4v23.6c0,4.4,2.8,7.4,6.8,7.4C188.1,60.5,190.8,57.5,190.8,53.1"/>
<path class="st1" d="M156,59.9V22.6h-1.8c0,1.1-0.5,2-2,2v35.3H156z"/>
<polygon class="st1" points="60.4,22.6 52.4,49.4 54.5,22.6 51.2,22.6 42.4,49.4 45.2,22.6 41.2,22.6 38.1,59.9 41.9,59.9 
	49.9,35.7 48.2,59.9 52,59.9 64.1,22.6 "/>
<polygon class="st1" points="18.9,22.6 14,47.8 13.5,41.8 11.5,22.6 7.8,22.6 0.6,59.9 4.4,59.9 9.2,35.1 9.8,41 12.5,59.9 
	15.5,59.9 22.7,22.6 "/>
</svg>
