<svg xmlns="http://www.w3.org/2000/svg" viewBox="0 0 512 512"><defs><style>.a{fill:#20c997;}</style></defs><path class="a" d="M429.29,0H82.71C37,0,0,36.88,0,82.37V429.63C0,475.12,37,512,82.71,512H429.29C475,512,512,475.12,512,429.63V82.37C512,36.88,475,0,429.29,0ZM364.4,392.27q-31.47,22.52-95.7,22.52H131V97.63H255.56q67,0,97,20,30.17,20,30.17,63.94,0,23.16-11,39.51-11,16.15-31.9,24h0q26.73,7.65,41.38,28.25t14.66,50.56Q395.87,369.76,364.4,392.27Z"/><path class="a" d="M259.87,220.42q19.61,0,29.74-8.5t10.13-25.07q0-16.36-10.13-24.85-10.13-8.71-29.74-8.71H214v67.13h45.91Z"/><path class="a" d="M300.39,286.48q-12.5-10.41-37.72-10.41H214v83.06h48.71q25,0,37.5-10.41,12.72-10.41,12.72-31.44Q312.89,296.68,300.39,286.48Z"/></svg>