<svg xmlns="http://www.w3.org/2000/svg" width="200.5" height="150" viewBox="0 0 200.5 150"><defs><style>.a{fill:rgba(0,0,0,0.1);}.b{fill:#20c997;stroke:rgba(0,0,0,0);}</style></defs><g transform="translate(0 0)"><path class="a" d="M-564.806-5273l-8.18-8.182-8.177,8.182h-7.283v-31.332H-745V-5423h181.214v65.6h-5.873v-59.726h-169.47v106.918h150.684v-.195h5.871v30.505l9.588-9.594,9.59,9.594V-5310.4h5.871v37.4Zm-155.145-43.865v-2.937a9.6,9.6,0,0,0-9.59-9.6h-2.936v-68.538h2.936a9.6,9.6,0,0,0,9.59-9.6v-2.937h131.115v2.937a9.6,9.6,0,0,0,9.588,9.6h2.936v31.137h-5.87v-25.542a15.506,15.506,0,0,1-12.245-12.252H-714.36A15.5,15.5,0,0,1-726.6-5392.34v57.347a15.508,15.508,0,0,1,12.243,12.254H-604.3v5.874Zm37.377-18.8v-5.875h56.36v5.875Zm-12.524-12.532v-5.875h81.408v5.875Zm72.21-18.8v-6.266h-59.881v6.266h-25.678l9.2-9.2-9.2-9.2h19.807v-6.267h71.625v6.267h19.805l-9.2,9.2,9.2,9.2Zm5.873-5.875h5.633l-3.326-3.329,3.326-3.328h-5.633Zm-73.933-3.329-3.326,3.329h5.635v-6.657h-5.635Zm8.18-2.937h59.881v-6.658h-59.881Z" transform="translate(745 5423)"/><path class="b" d="M-719.951-5417.125V-5423h6.262v5.875Zm-12.525,0V-5423h6.263v5.875Zm-12.524,0V-5423h6.262v5.875Z" transform="translate(819.951 5479.396)"/><path class="b" d="M-717.015-5366.994A28.026,28.026,0,0,1-745-5395a28.025,28.025,0,0,1,27.985-28,28.025,28.025,0,0,1,27.985,28A28.026,28.026,0,0,1-717.015-5366.994Zm-9.893-29.968a1.124,1.124,0,0,0-.889.419l-1.878,1.885a1.3,1.3,0,0,0-.355.942,1.3,1.3,0,0,0,.355.943l8.48,8.691a1.148,1.148,0,0,0,.913.418,1.149,1.149,0,0,0,.915-.418l14.98-15.393a1.308,1.308,0,0,0,.355-.943,1.3,1.3,0,0,0-.355-.942l-1.88-1.885a1.121,1.121,0,0,0-.887-.419,1.278,1.278,0,0,0-.94.419l-12.188,12.566-5.688-5.865A1.279,1.279,0,0,0-726.908-5396.962Z" transform="translate(889.031 5485.663)"/></g></svg>