<svg xmlns="http://www.w3.org/2000/svg" xmlns:xlink="http://www.w3.org/1999/xlink" width="1200" height="1000" viewBox="0 0 1200 1000"><defs><style>.a{fill:#fff;stroke:rgba(0,0,0,0);}.b{clip-path:url(#c);}.c{fill:#20c997;opacity:0.05;}.d{clip-path:url(#a);}</style><clipPath id="a"><path class="a" d="M-2399.912,758.086l.16-.526-242.684-226.632c-131.548-122.832-129.882-321.773,3.858-442.652,122.865-111.11,316.5-118.192,448.489-16.361l-.16.526,242.684,226.632c131.547,122.832,129.881,321.773-3.858,442.652C-2016.23,800.332-2100.747,830-2185.5,830-2261.429,830-2337.544,806.2-2399.912,758.086Z" transform="translate(2740)"/></clipPath><clipPath id="c"><rect width="1200" height="1000"/></clipPath></defs><g id="b" class="b"><path class="c" d="M694.412,169.637c99.594,8.444,190.968,56.357,248.616,132.352,88.528,116.544,109.4,310.85-315.855,564.459-670.81,400.2-632.343,9.131-623.806-46.539.843-5.4,1.475-10.9,2.108-16.3L41.519,436.3C58.7,259.868,226.479,129.873,415.971,145.975Z" transform="translate(205.007 -44.627)"/><g class="d"><image width="1245" height="830" transform="translate(-178)" xlink:href="/assets/img/fun-ways-to-make-money-fast.jpg"/></g></g></svg>