<svg xmlns="http://www.w3.org/2000/svg" width="30" height="50" viewBox="0 0 30 50"><defs><style>.a{fill:#20c997;}.b{fill:#1caf84;}.c{fill:#fff;}</style></defs><path class="a" d="M0,0H20V30L10,20,0,30Z" transform="translate(5 20)"/><circle class="b" cx="15" cy="15" r="15"/><path class="c" d="M13.258,12.066a.683.683,0,0,0,.984,0l8.066-7.7A.623.623,0,0,0,22.5,3.9a.623.623,0,0,0-.191-.471L21.3,2.485a.621.621,0,0,0-.479-.209.71.71,0,0,0-.506.209L13.75,8.768,10.687,5.836a.71.71,0,0,0-.506-.209.621.621,0,0,0-.479.209l-1.012.942a.676.676,0,0,0,0,.942Z" transform="translate(-0.5 7.725)"/></svg>