<svg id="Object" xmlns="http://www.w3.org/2000/svg" viewBox="0 0 936.73 561.76"><defs><style>.cls-1{fill:#6c757d;opacity:0.5;}</style></defs><title>worldmap</title><path class="cls-1" d="M119.81,52.92,106.19,41.16,92,29.75l-12.1-6.41-9.69-2.93-12.8,2.93-3.11,3.3L46,25.25l-3.46,3.81L46.7,33.9,47,40.47l3.46,1L48.77,46.7l-6.22-6.57L31.82,43.24v5.19l3.12,4.49L41.51,55c3.8-1.38-.69,3.46-.69,3.46S29,63.3,29,62.26s-5.48,3.46-5.48,3.46V72.3l-3.46,3.11,2.42,5.19,3.46,5.88,7.27,2.77-1,5.53L18,103.43H7.61L0,110.92l8.3-4,11.42-.7L39.78,98,47,94.43l1.73-9.68,8.31-1v5.54L70.57,91l9,4.85,7.26,10.72,4.85,18.33,1,25.95,2.08,15.56-10,17.3-5.54,22.83,4.5,14.87L89.94,229l2.76,15.57,3.81,13.14-1,6.23,6.92,8.3-2.77-10.72L96.51,245.6l-.69-10.73L101,239v7.61l5.53,9.68,8.65,19.37-1.73,8,6.35,6.92h4.72l5.19,5.53,7.61,3.46,6.92-1.73,7.26,8.3h9.34l6.23,11.07,9.34,9,6.91,3.81,4.85-4.84,3.46,1.38,2.42,4.89-2.42,15.17-8,10,1.38,7.95-3.8,4.84,1.73,8h3.46l7.61,18.33,8.3,11.42,15.22,9L220,432l3.11,41.17-2.42,14.53,2.42,11.41L228,512V528.9l6.22,12.45L244.56,551h15.22l-12.8-8.3-1.73-8.65,5.19-11.76-5.53-8,4.84-6.57L248,497.42l6.23-2.07,1.72-8,9.34-3.11,2.77-7.61-7.26-8.31,12.1,2.77L279.5,458l7.26-11.76V439l5.54-7.26,6.57-3.12,7.61-1.72,2.77-8.65,3.8-10.73V397.11L322,386l1.73-10L321,369.43l-6.92.7-8.65-5.88-12.11-.35-6.22-6.57-12.8-2.08,2.77-5.53-4.16-10-10-5.19h-8.64l-9-9.34L238,319.62l-6.23,2.08-4.84-2.77-6.23,1.73-4.5-5.88-4.15,3.8-7.61-.69-7.26,7.27-5.88-2.42-8,1.73-6.22-2.77-2.77-7.61L176.42,303l-6.58-.69-8-3.12,3.8-7.26,3.46-8-2.07-4.49-5.19,2.76-3.46,3.46-6.57,4.85-10.38-1.39L137,275l3.11-10.72,5.19-10.73,5.54-3.11s7.61-2.42,7.61-1.38,5.53,3.46,5.53,3.46l4.15-4.16,6.23.7,5.53,1,4.85-.34,3.11,5.19-1.38,5.53,2.76,5.88,1.39,3.12,4.15-6.23-3.11-13.15,11.41-13.83,9-3.12,8-15.56,7.61-5.88,6.92-2.77,2.07-5.88,9.69-4.15,2.77,5.19L258.4,201l5.88-5.53L256,189.56v-8.3l-2.07-4.15,14.18-1,11.76-.35s-7.26,8.31-7.26,9.34,1.73,2.77,1.73,2.77l13.14,4.5-1.38-8.65H279.5l4.84-8.3L284,162.92l-8.3-9.68-2.77-13.84-2.07-4.49-7.27,8L257,140.44l.35-10.72-7.61-8.65-9-2.08-3.11,11.76-4.5,5.54,2.43,6.23-2.08,9.68L224.84,155l-1,7.26L219,167.77l-4.49-4.5,3.45-12.8-7.61-2.42-11.06-9-4.5.34-.69-15.91,9.68-12.57,16.61-5.42,6.57-9.34L231.76,98l7.61-1.86,4-12.28-6.48-3.26s-1.65,5.86-2.69,5.86l-6.74,5-.87-4.32,2.25-4.84-2.59-2.25-3.29,5.19-.86-9.34.34-8.82-2.77-4.67-6.05,4.15-.69,5.88,2.07,4-.51,5.7-6.75,4.5L206,80.6l-4-.35L201.67,83l-6.75-1.73L188,77.66l-2.07-4.15-4.67.34L179,81.64l-3.11-4.16-2.77-2.42L162.75,73l2.94-2.25-.69-4-4-2.42-9-7.44-8.82-1.38-9-7.44-10.37,1Z"/><path class="cls-1" d="M242,57.94l-9,3.46-2.77,8.13v5l5.88,1.39,9.86,4.32s6.58-.69,7.09-.86,3.64,5.7,3.64,5.7l5.53,8.83v4.66l-6.92,4-1.21,4.15h-6.22l-4.5,2.43,1.56,3.45,6.74-3.11,2.77,4.15,4.32,7.27,8.65,5.7h2.08L265.31,118l3.12.34,2.94,5,3.8-3.29v-4.67l-5.53-7.44,2.94-3.45,4,4.15,1.9,4.49,4.84-4,3.63-6.23-4.15-1-5.88-7.26-1.38-2.34.52-6.14-9.51-9L262,70.22l-2.25-6.92-6.57-1-2.77-2.07-7.09,2.42L242,70.05l-2.77-1.39,1.73-6.91,5-3.81Z"/><path class="cls-1" d="M160.33,29.92l.69,6.75-5.19.86L152,42.72l1.38,6.57h5l10.72-5.19L167.77,47l-2.94,2.25,4.32,2.77-4.5,1.21.7,1.9,10,3.81-.87,2.07-6-3.11-4.76,1.38v2.77l3.2,1.9,2.42,2.6L168.63,69,170,70.74,175.38,72h8.47l3.63-2.08L190.94,74h5l3.8-2.77L201.49,68l-4.32-3.8s-2.08-2.77-1.56-2.77a8.27,8.27,0,0,0,2.08-.87l.52-9.34-4.15-3.63-2.25,2.77v4.32l-2.94-1.9-.69-5.53-2.77-.35-6-1,.51-3.63-2.07-3.46-4.67-5-3.46,1.21-2.77-5Z"/><polygon class="cls-1" points="189.91 16.86 183.03 14.79 178.62 17.51 171.23 18.42 169.93 21.53 174.73 24.13 179.92 23.34 182.64 27.24 179.92 27.89 179.92 29.92 184.72 32.56 187.05 31.39 188.22 34.63 185.24 34.63 185.11 36.58 187.83 38.4 192.11 39.3 196.52 37.1 202.1 39.3 205.86 35.67 205.08 32.04 201.49 30.48 202.49 26.33 198.34 27.05 198.47 29.92 198.21 33.34 193.15 33.08 191.72 27.05 187.9 23.87 184.72 25.3 180.57 21.14 183.55 18.81 186.01 21.79 188.74 20.41 189.91 16.86"/><path class="cls-1" d="M251.26,11.42l14.92-1L273.05,14l7.66-1.78,8,1.78,16.73,5.32,3.25,2.2L305,23.34l-5.18.53-2.47,2.46-6.87,2-4.67,3.24H272.92V33.6l4.41,1.55-1.16,2.6-5.84,1.55-2.85,2.21H264.1l3,3.11L265.4,47l-6.83-2L241.66,39.3l-4.54,1.56.78,3.76,4,2.34,7.53,1.81,6-1L260.34,52l-.78,2.9-3.63,1.3-8.43-2.08-8.95-2.85-3.24,1.68s-4-5.05-4-5.44,1.55-6.88,1.55-6.88l-4.28-1.3-2.2-4.67,5.31-1.32,2.6,3.66,4.41,1,5.32-.78,4.8-.39-.91-2.21,3.76-1.32L254,36.58l3.37,2.72h3.11l.13-3.24-2.72.52-2.08-1.95,1-2.2L251.13,31l2.6-3,5.7,1.9,1.3-1.51-3.11-5.07,1.94-1.29,3.77,2.21L265,27.05l2.53,1.23V25.81l5.64-1.16,3-1.95-.13-3-2.6.13-3.5,2.46L264,21l-3.24-1.68-2.72.52-3.51-.39-1-3.25V13.36l-2.6-.91Z"/><path class="cls-1" d="M211.05,48.9l-2,4.28h-3.24l-.91,3.9L208,59.8s1,4.93,1.1,4.28,4.28-2.33,4.28-2.33,2.86-1.69,2.86-2.08S215.07,54,215.07,54l3.76-1.17-.78-3.89Z"/><polygon class="cls-1" points="220.52 54.09 219.74 57.94 221.95 60.84 224.41 60.84 230.2 58.76 234.79 54.74 227.26 51.97 220.52 54.09"/><polygon class="cls-1" points="207.72 72.21 202.44 76.1 210.31 79.82 210.31 76.01 207.72 72.21"/><polygon class="cls-1" points="217.23 35.46 217.23 39.69 215.59 43.24 219.74 44.71 222.77 42.81 223.72 38.48 223.2 35.46 220.52 33.99 217.23 35.46"/><polygon class="cls-1" points="215.59 16.69 217.66 18.33 218.27 19.98 215.59 19.63 215.59 21.1 222.34 21.96 224.32 25.68 226.36 26.12 227.26 21.4 220.43 15.65 216.11 14.79 215.59 16.69"/><path class="cls-1" d="M229.25,22.83l1.56,2.08-2.25,1.21,2.25,2.5s6.4-1.34,6.14-1.57-2.16-3.71-2.16-3.71l-3.37-2.5Z"/><polygon class="cls-1" points="244.82 10.98 250.27 18.94 254.42 21.96 253.81 24.73 251.74 27.05 246.9 28.62 243.52 29.06 238.25 23.34 243 22.57 243.78 20.41 240.15 20.84 236.43 20.02 236.43 15.48 241.36 15.39 240.75 12.45 244.82 10.98"/><path class="cls-1" d="M226.36,42.94l-3.25,1.77,1.62,2.77s3.7,2.07,3.83,1.42.65-4.19.65-4.19Z"/><polygon class="cls-1" points="199.89 49.94 197.43 45.98 200.67 44.71 203.78 46.7 199.89 49.94"/><path class="cls-1" d="M196,17.9l1.43,2.94s5-.17,5-.39,3.42-6.18,3.42-6.18l-3.42-1.82-5,1.69Z"/><path class="cls-1" d="M228.56,100.53c-.65.39-7,9.47-7,9.47l2.16.92v2.84l3.54-2.07L230.2,109l1.73,1.43,2.21,2.33,4-.39-3.37-5.18v-2.34Z"/><polygon class="cls-1" points="251.05 96.08 251.56 92.27 255.37 91.32 257.27 93.14 255.63 95.47 252.86 97.03 251.05 96.08"/><polygon class="cls-1" points="301.07 33.99 295.11 36.19 286.93 36.71 282.52 38.14 283.69 40.6 286.93 43.72 291.8 43.72 294.2 45.27 289.66 45.27 286.42 45.98 282 44.71 283.69 47.33 286.93 48.9 290.7 49.03 289.79 49.94 284.99 49.94 284.21 51.97 286.16 52.66 288.1 56.17 291.54 56.17 296.14 54.74 300.17 56.41 304.19 59.8 305.22 66.42 307.69 67.97 309.5 74.03 309.5 78.35 307.43 80.42 307.17 84.06 309.5 84.7 311.19 80.94 313.53 84.7 314.3 88.73 315.34 93.53 312.62 98.02 308.73 102.61 305.87 109.87 306.39 117.14 307.3 125.44 308.73 131.92 313.01 137.76 317.29 137.76 319.23 141.65 323.77 142.95 323.77 140.48 328.7 132.7 333.63 124.01 336.1 118.95 342.32 117.65 348.81 116.36 354 110.26 357.63 107.15 363.86 107.15 371.51 104.94 378.77 99.1 373.32 98.02 367.75 95.99 370.34 93.53 375.92 92.27 377.22 95.86 382.92 97.03 382.92 93.01 381.5 88.99 375.27 86.52 372.03 81.46 376.18 82.89 376.83 79.13 381.5 81.46 386.69 82.11 387.98 79.82 383.7 77.7 386.69 74.85 389.54 71.34 388.89 68.23 385.13 64.99 387.72 63.3 393.82 65.77 393.82 61.88 392.39 62.01 390.84 62.65 388.37 60.84 389.28 58.76 391.62 59.67 391.62 57.94 388.89 56.17 389.15 51.97 392.39 49.03 395.25 49.03 393.95 44.71 399.66 42.94 402.38 40.47 406.27 39.35 403.94 37.23 396.67 36.84 395.38 39.35 389.67 36.97 387.07 41.25 382.02 43.84 384.48 38.66 387.98 36.32 385 33.31 383.31 33.99 382.67 36.84 378 37.75 375.27 39.35 375.08 37.81 378.25 35.87 378.71 33.73 372.74 35.35 366.32 36.19 364.5 37.42 364.12 35.87 367.88 34.12 367.29 30.48 374.69 32.49 384.61 31.13 381.24 29.64 381.63 26.66 378.32 24.78 363.4 23.34 360.16 22.18 358.28 23.74 355.36 23.34 353.48 24.13 355.1 27.11 347.77 24.97 347.77 22.51 343.75 23.34 341.8 26.07 345.57 27.3 346.54 28.54 342.52 29.06 342.39 31.72 339.99 30.87 337.52 27.57 334.74 27.24 332.27 24.91 329.55 26.33 331.23 30.03 326.63 28.21 323.77 29.51 321.83 24.78 312.62 24.52 307.36 25.62 306.46 29.32 302.44 29.06 298.8 29.32 294.85 31 295.88 33.31 301.07 33.99"/><polygon class="cls-1" points="406.27 166.69 412.24 165.13 413.8 168.24 412.5 175.64 409.13 179.53 403.55 180.18 400.44 178.75 404.33 172.65 401.47 170.06 403.68 168.24 406.27 169.93 406.27 166.69"/><polygon class="cls-1" points="636.22 14.7 638.29 16.86 638.9 22.14 640.28 22.83 641.67 20.58 646.25 18.77 646.25 15.74 641.93 13.75 636.57 13.75 636.22 14.7"/><polygon class="cls-1" points="621.17 11.85 615.64 15.05 614.17 19.29 615.98 20.5 629.13 20.06 634.84 18.94 633.45 12.63 630.38 11.85 626.71 14.44 625.84 11.41 621.17 11.85"/><polygon class="cls-1" points="729.79 3.37 732.25 6.62 726.41 5.84 723.82 8.17 723.82 12.71 731.34 15.96 733.81 12.19 737.05 9.66 737.05 4.8 740.94 8.17 746.26 5.97 754.95 5.71 759.23 1.17 755.34 0 751.19 1.82 744.19 1.43 739 1.56 735.11 3.24 731.73 2.59 729.79 3.37"/><polygon class="cls-1" points="738.87 20.5 741.53 15.96 747.17 17.64 747.17 19.59 738.87 20.5"/><path class="cls-1" d="M880.26,26.46l-2.51-1.64,4.33-.87.6-6.31-4.15-2.07h-7.87l-3.29.51-2.76-2.16-6.75-.6L847.4,10.45l-2.51-3.19-6.14,1.13-11.24,2.85L824,10.45l-3.72,2.44,1.65,2.59,2.68,1.38.86,3.64-1.29.6L818.25,20l-3.11-2.34-.52,1.82-8,2.51-3.89,2-.87,2.6-6.23-3.21.18-4.14-6-.95-4.67,1-5.53,4.06-1.13,2.34-7.26-1.81-5.62.08,1.12-2.24-3.37-1.47-3.55,1,.35,3.9-1,2.76-2.42-1.38-1-4.33-8.73.52-5.71,2-1.21,3.89,2.51.09.35,3.2-.18,3.2h-4.75l-4.07-.43-.08,2,1.38,1.47-2.6-.44-2.85.52-3.2-3-.86,2.85,2.24,3.11-.77,1.73-4.5-1.12-10-3.63L709.55,38l1-1.29,2.25-1.73L714.57,32l-3.38-1.56-5.1,1.21-5.36-1.12-.86,2.33-1,2.34,3.37,1.29-.78.52-3.72,1-6.31,2.16L690.53,38l-3.64.44-6.22,2.07-3.29-1.3-2.59,1-4.33.34-.69,2.42.43,1.39-2.68,1.12-3.46,2.42L662.42,50l-2.33.87,2.85-5.62,6.57-6.83,4.33-3.29-.52-4.84-3.38-1.73,3.72-.78-1-3-6.23-2.07L662,24.47l-6.75,1.91-2.85.51-2.85-.6-1.13-4.76-2.33-.6-1.39,3.8-1.12,3.72L646,30.7l2.34-.87-.7,1.91H643.4L639.76,33l3.55,3.12-6,1-2.16-1.56-9.08,6.66L622,43.5l-1.47,3.11-2.42,1.9,1,3.55,3,2.42-2.33,4.33-1-3.9-2.59,1.82-5.88,1.82-2.34,1.9,1.21,3.2,2,2.64,6.61,1.42,2.34,5.06-.13,2.86,2.85,3.76L621,80.68l-3.64-4-.78-6.09-6-2.21-5.32-2.72-2.34,1,1.56,3.77-4-1L597.09,66l-1.17,1,1,1.56-2,3.24-.39,3.64L598,79l-.26,3L599,83.67l.13,2.46,1.69,1.56,4.67-2.08,4.67,2.86,1.43,3.63,5.7,2.46-2.2.78-4.54-1.68L608.11,89l-2.85-1.56-2.47,2.85,1.43,4.28L602.79,98l-1.94,3.68-8.17.39,2.2-2.21,1.82.39L599.16,98l1.17-5.53V89.25l-4.15-4.54-1.95-7.4-3.37-1.81.91-6-4-1.56-4.54-.39-.65,5.06,1,3.89L580,77.83l-.64,2.08,2.46,1.81L581,84.19l.52,3.11,2.86-.13,3.24,3.24,1.17,4.28-5.58-3.89-4,.13-4.41-2.72L572.7,89l-4.8.26-8.82-3.12-6.62-4.54.78-6.87,3.64-8.82L564.53,59,571,54.61l3.25-1.43.39-5.31-4,.64-.91,2.73-9.08,3.63-6.36,4.28-1.82,3.24-2.2.26.26,1.56,1,1.17-1.95,4-2.2,5.19.51,4.54L544,80.55l1.43,4,4.15.25L551,86.65l5.32.13,11,3.89,1.3,4.28-2.85-.26-4.8.78L555.71,99,553,100l2.21-6.22L552.72,95,550.91,98,544,100.66l-2.46,4.41v2.72l-4.28-.77-2.6-2.08,1.95-2.46,1.82,1.16L537.29,100,533,99.75l-2.73-.26.65,3.38,2.6,4.28.64,2.85.65,2.59L530,110h-1.29l-1.17,2.33-2.85,2.34,2.46,3.24-3.89,1.82-3.76-2.21-2.6.39,3.89,3.25,1.43,1.94-4,1.17L513,121l-1-5.32-4-2.6L504,109l3.63.78,4.54,2,8.56,2.07,4.8-2.2.65-4-3.76-4-10.12-4.67-5.58.52-3.11-3L500.06,98l-8.3-5.66-7.27,2.07L482.94,98l-2.08-3.46-2.59.52-2.6,3.76-5.06,1.43L467,104.68,463.6,112l-4.14,9.21-15.57,12.45L442.08,143l2.07,9.6,5.19,1.81,8.56-7.26,1.56,7.26,4.14,8-4.79,3.5L456,154.1l-3.12,2.34.52,3.5-3.5,2.08.78,4.8,2.2,3.63-5.58,1.81-5.18,4.16-1.95,5.44-10.38,8-4.15-3.12,7.4-4.15.51-5.45-4.28-4.54L422,162.54l2.85-5.06-4.15-3.77,1.43-3.37-5.32,1.56-3,3.63v5.71l2.72,5.19,3.89.78-.78,6.09-2.2,2.73L415,180.18l5.58,1.29L416,183.68l.65,1.95,5.06-.52,2.21,3,.9,2.59-1.42,1.17-4.67-.91-1.17,2.6,2.07,1.55,4.29,2.08,3.89,5.58v3L425,212.48H412.5l-4.15-1.56-4.28,2.21V220l-1,7.65V234l1.43,2.07,4.28-.77,3.89,2.85-1.17,4.67-3.5,3.63-6.49,4.41-1,7.27v3.76l-5.32,3.24-4.28.91L389,269.81l-3.37,3v3.38l-3.37,2.72-1.43,4.28-3,3.25.77,3.11,2.47,1.3-1.43,2.46,1.69,4.54-1,3.37-.26,4-2.85,2.08,1.55,3.11.52,5.19,3.5,1.69,6.23,9.08,2.34,5.84H395L405.63,341h3.63l6.22-3.51,4.93.65,5.19,1.43,5.19-2.85,11.29-2.86,4.15,3.76,1.81,2.47,7.66-.52,3.63,2.33,1,4.28L457,356.85l.52,4.41,6.09,4.8,2.47,5.06,2.6,2.34,1.55,6-1.16,3.5,3.11,5.71-.91,3.63-4.93,7.14L465,407.31l.38,5.32,3.38,3.24.65,3.63,1.81,2.73,1.82,9.73,1.68,5.83v4.29l2.86,3,1.94,7.13,3,2.6v3l-1.17,1.69,1.17,3.11v2.08l6.35,3.11,3.12-2.08,5.19-.77,9.46-.78,5.84-4.54,6.75-6,3.37-6.1,3.63-3,.65-7.52,7-3.64,2.2-6.87-1.69-7.65,3.9-5.84,5.83-5.06,6-1.82,3.63-4.28-1-2.33,1-5.06v-7l-3.5-6.87.52-5.71-1.3-3.11,2.6-5.19,3.89-7.39,2.72-.65,2.08-3.89,15.43-14.14,5.32-7.79v-4.15l3.37-6,.91-6.1-1.68-1.43-5.58,2.21-4.41.13-1.69,1.81-3.11.13-3.25,1.69-3.37-1-2.2-3.89,1.16-2.2L559,311.45l-9.34-6.74-3.11-7.53-3.89-2.72-2.08-10.38-5.71-6.36,1.43-1.55s-6-6.1-6.36-6.1-1.29-3.24-1.29-3.24l-2.6-1.95-2.85-7.13,1.56-1.43,2.2,4.15,1.56,3.5,2.07,2.73.13-5.45.91-1.82.65,4.93,2.72,1.82,2.73,5.06,2.72,2.33,1,2.73L545.2,278l3,8.82.52,1.56,4.28,1.3,6.62,12.06-.39,3.5,1.95,3.12.13,1.81,2.07,2.6,3.11.13,3.64-2.08,8.95-2.85,2.2-2.34,7.4-1.16,2.2-4.16,6.49-1.55v-2.86l3.5-.51v-2.6l2.85-1.17.91-4.41,2.08.26v-2.33L609,283.3v-4.54l-5.45-4.28-4.8-.39-2.2-7.91-3.11,3.76-2,4.41s-7,1.56-7.39,1.3-5.71-7.14-5.71-7.14l-5.19-7.78-2.59-3.63,4.28-3,2.59.9,3.11,6s1.3,2.59,1.17,2.21,2.21-1.3,2.21-1.3l5.57,4,3.12-.65,4.67-1.94L599,265.4l.91,2.21s6.36,2.2,6.75,2.2,10.37-.91,10.37-.91l9.34-.77,1.82,2.59,3.24,1.56,1,1.42,2.33-.13v2.08l4.8.52-3,3,3,2.21,1.56,2.46,4.41-.78,2.6-5.32.64,4.16-1,6.22,8.3,17.12,1.56,2.08,1.55,7,2.86,3L663,320v2.08l3.64,4.67,2.72-1v-2.85l5.32-4.67-1.43-3.38,1.43-4.54-.65-4.15.65-8.56,3.89-.91,2.59-4.15,5.32-6.48,5.06-4.41-.78-2.34,3-3.24,3.37,2.2,5.45-2.07,3.11,1.94v3.12l5.84,5.57,3,3.64V296l1.43,2.47,4.67-3.11.65-2.86,2.33,3.12,1.56,7.39,2.72,4.28.65,1.3-1.43,1.81,1.43,3.12v11.41l2.85.91,4.67,7V338l1.82,5.45,4.93,3.89,3.24,2.08,1.43-1.3-2.6-6.62-.12-5.83-4-4.28-4.8-5.45-3.5-7L732,314.3l.91-4.67L732,306l1.69-2.46,1.43,1.55.64,2.86s2.86.65,2.86.26,3.37,2.46,3.37,2.46l.78,3.37,2.72,1.17,1.95,2.21v3.63l1.69,1.69,4-3.25.9-3.11,3.9-1.3,3-2.2v-6.36L759.75,299l-5.58-5.71-2.46-.91L749.89,289l-3-3.89.39-4.67,2.85-1.69,1.69-3.76,4.93-1.17,1.17,2.73.39,4.67-1.56,2.46,1.56,3.5,3.24.91,1.68-4.8-1.81-2.07-1.56-3.64,2.47-3.89,12.32-4.93,5.58-5.7,4.67-9.73v-4.41l2.72-4v-6.36l-3.89-.13,1.82-4.8-3.51-4.28-2.72-1.69s-5.19-5.7-5.45-6.22a35.41,35.41,0,0,1-.39-4.8l3.12-4.28,3.24-.91.39-3-4.15.64-2.47-1-1.3,3.11-5.18-.52-1.56-2.33-2.85-3.64,1.16-1.94,2.6,1.17.65-2.34,1.55-1.43,2.21-3.89,3.11-1-.39,2.47-.78,2.72,2.08,2.6,2.2-2.6,4.29-1.29,3.37.64-.26,2.6.39,3.63,3.63,1.56,2.72,1.16v2.47l.65,3.63.78,3.89,1.95,1.82,4.54-2,2.2-4.28V209.1l-6.22-6-3.77-3.38-.39-3,2.86-3.11-.26-3.25.65-4,1.55-1.42-1-1.3,1.16-2.34,2.34,2.34,5.06-1.3,2.85-7.78.91-8.69v-3.5l2.33-7.53-5-14,.12-5.32-3-2.07-1.3-3.76-5.57-4-3.64.13.78,2.85-2.46.65-4.8-3.25-4.28.52,2.85-4.28,1.82-4.8,1.94-6.6L788.55,98l5.32-2.55h6.87L804.5,94l1-3.63h4.8l3.37,2.73,5.71-2.73,3.37-2.72L818.64,87V81.85l.39-6.48s6.23-7.27,6.23-6.88,1.56,5.84,1.56,5.84l3.89,2.72,1.55-2.33v-4l2.25-.13V67.89l-2.16-1.82,1.21-3,4.5-.52-2.16,2.77,1.55,4.5.61,4L834.86,76l-.52,10.81-3.55,8.31-1.9.77,2.68,3.64-1.21,2.94,1,4.75,8,10.81L846,128.59l2.08,2.25.35-4.58.86-3.37-2.42-4.67,1-2.43-.44-4.41,2.6-.46,1.21-2-2.68-7.35V98.67l2.33,2.6,1.13-1.21-2-3s-1.3-.78-1.56-.87a30,30,0,0,1-2.25-3.11l-1.21-2.68-2.16,1.56-1-2.17.18-4L839.61,78l2.51-1.38,2.51,2,1-6.14,1.47-1L848,77l1.73-2.51.52-2.86,3.81-.77L858,73.07V69.79l5.79-15.57,4.07-4.15,3.63.87V47.48l-4.67-1.39-2.16-1L861.32,40h-5.1L862,36.41l.35-5.54-2.68-3.8L861.06,24l1.3,3.72,3,2.16,3.54-2.24L872,30.35l3.12,1.91L876,29.4l2.16,2.68,4.67.26.7-1ZM497.59,145.93l-6.61.39-3.11,2.08.64,2.33,2.47.39v6.62l-2.47.26-1.68-4.42-3.89,4.8,1.55,5.84-1.94,2.34-3.38,1.81-1.55-3.24-4.28,2.08-6,3.76-2.46-.91-4.16-.91L462.7,166l3.76-2.21,4.15-2.72,2.73-3.11-1-7.4,4.28-3.89-.39-3.76-4.93-2.86v-6.87s5.06-4.41,5.45-4.15,3.5-3.24,3.5-3.24l.65-6.1,3.63-3h3.64l.64,1,.13,3.76-6.09,6.88-1,2.72,1,5.71.9,5.19,4.8,1.82,5.84-3,4.28-.91,6.23,3Z"/><polygon class="cls-1" points="581.48 392.26 574.73 400.39 570.06 405.06 564.53 406.1 563.14 410.25 564.36 419.42 560.38 423.22 560.38 431.7 563.32 435.68 568.68 435.68 572.14 428.58 580.27 410.6 579.4 406.79 582.86 404.37 582.86 398.66 581.48 392.26"/><polygon class="cls-1" points="719.32 333.46 724.51 333.46 735.41 345.39 739.91 348.68 745.61 355.6 749.07 361.13 751.67 363.21 750.8 368.57 750.63 373.93 745.44 372.03 739.91 366.84 732.64 352.14 729.7 346.6 726.24 343.66 720.71 336.57 719.32 333.46"/><polygon class="cls-1" points="752.88 376.01 750.63 379.29 761.01 382.06 776.57 386.21 777.96 383.62 774.32 382.23 771.9 378.43 766.54 377.22 760.83 378.43 756.68 376.01 752.88 376.01"/><polygon class="cls-1" points="785.22 327.75 781.41 334.67 777.96 335.71 775.02 341.42 769.83 344.36 769.83 348.51 764.29 349.37 761.7 351.62 763.25 355.25 766.54 363.73 770.69 363.73 777.96 365.46 780.03 369.61 782.8 366.49 786.09 358.88 786.09 355.25 790.06 351.79 792.66 350.75 788.85 346.43 787.82 337.44 790.06 337.09 792.66 334.32 785.22 327.75"/><path class="cls-1" d="M812.55,348.68l-4.67,2.25-8-2.25-4.5,5-1,5.37-1.73,4.49,1,4-.34,6.4c1.73,1.73,2.59.69,2.59.69l2.77-6.22-.86-5.71,2.76,4.5.35,5,3.46.87,2.25-3.46-2.42-7.8-6.58-5,2.08-4.33h5.88l4.67.18Z"/><path class="cls-1" d="M792.66,283.65l-.87,11.93,4.15,5.54,3.64,6.91,3,6.75v4.67l3.2,8.3,8.65,3.68v-3.68l1.9-1.56-1-6.91-3.63-5.19-.34-6.55-5.54-6.08s-5.71-2.59-6.22-2.77-1.73-5-1.73-5v-10Z"/><polygon class="cls-1" points="830.19 357.15 836.07 362.52 832.09 364.59 834.17 367.19 835.03 370.82 838.32 369.61 845.75 372.89 852.33 376.87 852.33 382.75 852.33 386.21 858.55 392.09 865.99 390.88 864.26 387.94 869.97 386.21 872.04 385 875.68 389.67 875.68 393.13 878.1 397.8 885.36 399.87 888.65 396.59 882.25 391.4 879.65 386.21 877.58 381.11 882.59 379.98 890.38 380.33 895.05 373.93 891.76 372.72 889.17 376.87 882.08 378.51 874.47 376.01 872.39 371.34 861.32 366.67 850.25 359.06 846.79 363.55 842.64 366.49 839.36 361.81 839.53 355.94 835.2 355.94 830.19 357.15"/><path class="cls-1" d="M766.19,438.1l-1.9,11.07-1.21,7.95v11.94l1.21,4.15-3.63,6.4-3.29,2.76,2.43,3.29,4.49,1,9-2.94,9.68,1.38,3.11-4.32,9.17-2.25,2.25,1.9,5.1-2.59,6.49-.35,5.36,4.67,1,6.05v4.5l1.9,2.08,2.08-3.29,6.74-5.36L825,489.81l-3.29,3.63L817,498.29l1,1.73,3.29-.87,1.55-3.29,3.29-3.28-1.56,5.19.52,1.21.18,4.67L824,506.93l2.25,3.64,5.88,2.94,5.71-.7,2.25,4.33,5.53-3.63,2.25-1.39,4.84.18L858,504l1.73-3.46,9.52-8.82,9.16-17.12,1.56-7.78v-9.17l-3.46-6.22-.35-4.5-2.07-3.11-1.21-6.75-5-5.53.69-5.19s-.34-5.54-.86-5.88.69-6.23.69-6.23l-4.15-1.9V399.87l-2.59-1.73-1.91,3.64L856.31,412l-2.6,10.38-1.9,3.28-3.12.18L844.54,421l-6-6.91,2.42-5.71,3.81-4.5-2.08-2.42-2.94,1.38-6.23-2.94-8,1.73s-3.29,5.54-3.46,5-2.25,2.94-2.25,2.94l1.21,3.29-6.4,1.9,1.73-3.81-2.77-4.84L809.26,409l-5.19,4.5v3.11l-2.76-.52-.52,5-1.21-3.46-.7-2.08-3.11,2.94.52,4.85-2.6,2.42-4.49,2.59-5.88-.17-9.17,4Z"/><polygon class="cls-1" points="831.23 522.67 835.2 525.61 842.82 524.14 840.05 528.55 837.8 533.74 832.96 537.2 831.23 535.64 829.5 531.84 831.57 529.94 831.92 525.96 831.23 522.67"/><polygon class="cls-1" points="912.34 538.41 900.41 548.79 884.32 557.44 885.02 560.03 892.28 561.76 899.54 559.17 913.03 546.37 917.19 541.52 914.59 537.2 912.34 538.41"/><path class="cls-1" d="M926.18,510.22l1.38,8.48-1.38,4.66.69,3.81-4,1.38-3.46,4.15,1.21,2.6,1.56,3.11-.52,2.6,5.88-3.81,1.56-3.11,3.63-1.73,4-4.15v-2.6s-4,.7-4,0-.34-6.57-.34-6.57l-1.56-1.9-1.38-4.67-1.39-3.81Z"/><polygon class="cls-1" points="819.81 168.11 822.23 174.86 819.81 178.66 818.08 181.6 822.92 185.58 825 192.33 825 203.91 820.16 207.03 819.12 212.04 812.2 213.77 809.61 216.37 806.84 220.52 808.57 223.11 805.63 224.5 806.84 228.82 809.95 233.15 812.89 230.72 812.55 225.71 817.22 223.29 826.9 217.93 833.48 211.7 831.23 199.76 831.75 195.61 826.73 189.04 826.56 185.24 822.75 182.99 823.96 180.22 830.19 182.99 830.36 181.26 828.63 178.15 834.86 176.59 834.86 172.78 834.86 169.15 832.78 169.67 830.19 172.44 826.73 171.4 822.75 168.11 819.81 168.11"/><polygon class="cls-1" points="801.82 122.8 801.82 126.08 803.21 127.99 804.07 131.97 808.05 138.54 809.78 141.13 809.78 145.46 812.72 150.13 816.35 155.31 817.04 160.16 820.24 165 821.02 160.85 817.56 154.1 814.62 146.67 819.12 148.57 815.32 143.03 809.26 134.56 807.19 129.03 804.07 125.74 802.86 122.8 801.82 122.8"/></svg>