<?xml version="1.0" encoding="utf-8"?>
<!-- Generator: Adobe Illustrator 22.0.1, SVG Export Plug-In . SVG Version: 6.00 Build 0)  -->
<svg version="1.1" id="Layer_1" xmlns="http://www.w3.org/2000/svg" xmlns:xlink="http://www.w3.org/1999/xlink" x="0px" y="0px"
	 viewBox="0 0 263 73" style="enable-background:new 0 0 263 73;" xml:space="preserve" fill="#73b722">
<g>
	<g>
		<g>
			<defs>
				<path id="SVGID_1_" d="M101.8,26.8c-1.3-0.6-3.2-1.2-6-1.2c-6.1,0-9.7,4.5-9.6,10.2c0,6.5,4.2,10.2,9.6,10.2
					c2.8,0,4.7-0.6,6.3-1.2l1.1,5.9c-1.7,0.8-5,1.6-8.9,1.6C84.5,52.3,78,46,78,36.2c0-9.5,6.5-16.8,17.5-16.8
					c2.9,0,5.9,0.6,7.7,1.5L101.8,26.8L101.8,26.8z M126.8,51.6l-0.5-3.5h-0.2c-1.9,2.5-5.2,4.2-9.3,4.2c-6.3,0-9.9-4.6-9.9-9.4
					c0-8,7.1-12,18.7-11.9v-0.5c0-2.1-0.8-5.5-6.4-5.5c-3.1,0-6.3,1-8.5,2.3l-1.6-5.2c2.3-1.4,6.4-2.8,11.4-2.8
					c10.1,0,13,6.4,13,13.3V44c0,2.8,0.1,5.6,0.5,7.6H126.8L126.8,51.6z M125.7,36.2c-5.6-0.1-11,1.1-11,5.9c0,3.1,2,4.5,4.5,4.5
					c3.2,0,5.5-2.1,6.2-4.3c0.2-0.6,0.3-1.2,0.3-1.7V36.2L125.7,36.2z M141.9,51.6v-46h8v46H141.9L141.9,51.6z M187.1,29.2V47
					c0,6.6-1.4,11.3-4.7,14.3c-3.3,2.9-7.8,3.8-12.2,3.8c-4,0-8.3-0.8-11-2.5l1.7-6c2,1.2,5.4,2.4,9.2,2.4c5.2,0,9.1-2.7,9.1-9.5
					v-2.7h-0.1c-1.8,2.8-5.1,4.7-9.2,4.7c-7.8,0-13.4-6.5-13.4-15.4c0-10.4,6.7-16.6,14.3-16.6c4.8,0,7.6,2.3,9.1,4.9h0.1l0.3-4.2
					h6.9C187.2,22.2,187.1,24.8,187.1,29.2L187.1,29.2z M179.1,32.7c0-0.7-0.1-1.5-0.3-2.1c-0.8-2.9-3.1-5.1-6.5-5.1
					c-4.5,0-7.8,3.9-7.8,10.3c0,5.4,2.7,9.7,7.7,9.7c3,0,5.6-1.9,6.5-4.8c0.2-0.8,0.3-1.9,0.3-2.8v-5.2H179.1z M209.5,52.3
					c-8.9,0-15.8-6.2-15.8-16.3c0-10.4,6.8-16.7,16.3-16.7c9.4,0,15.7,6.6,15.7,16.2C225.6,47.2,217.5,52.3,209.5,52.3L209.5,52.3z
					 M209.8,25.2c-5.6,0-7.9,5.4-7.9,10.7c0,6.1,3,10.7,7.8,10.7c4.5,0,7.7-4.5,7.7-10.8C217.4,30.9,215.2,25.2,209.8,25.2
					L209.8,25.2z"/>
			</defs>
			<use xlink:href="#SVGID_1_"  style="overflow:visible;fill:#929292;"/>
			<clipPath id="SVGID_2_">
				<use xlink:href="#SVGID_1_"  style="overflow:visible;"/>
			</clipPath>
		</g>
	</g>
	<g>
		<g>
			<defs>
				<path id="SVGID_3_" d="M201.6,60.2c-0.3-0.2-0.8-0.3-1.5-0.3c-1.6,0-2.5,1.2-2.5,2.7c0,1.6,1.1,2.7,2.5,2.7
					c0.7,0,1.2-0.2,1.6-0.4l0.2,1c-0.3,0.2-1.1,0.4-2,0.4c-2.1,0-3.5-1.5-3.5-3.6c0-2.2,1.5-3.8,3.8-3.8c0.8,0,1.4,0.2,1.8,0.4
					L201.6,60.2L201.6,60.2z M207.3,66.1l-0.1-0.9l0,0c-0.4,0.6-1.2,1.1-2.2,1.1c-1.4,0-2.2-1-2.2-2c0-1.7,1.5-2.7,4.3-2.6v-0.1
					c0-0.6-0.2-1.6-1.6-1.6c-0.7,0-1.4,0.2-1.9,0.5l-0.3-0.9c0.6-0.4,1.4-0.6,2.3-0.6c2.2,0,2.7,1.5,2.7,2.9v2.7
					c0,0.6,0,1.2,0.1,1.7h-1.1V66.1z M207.1,62.5c-1.4,0-3,0.2-3,1.6c0,0.8,0.6,1.2,1.2,1.2c0.9,0,1.5-0.6,1.7-1.2
					c0-0.1,0.1-0.3,0.1-0.4V62.5L207.1,62.5z M210.5,66.1V55.7h1.3v10.4H210.5L210.5,66.1z M214,66.1V55.7h1.3v10.4H214L214,66.1z
					 M225.4,60.2c-0.3-0.2-0.8-0.3-1.5-0.3c-1.6,0-2.5,1.2-2.5,2.7c0,1.6,1.1,2.7,2.5,2.7c0.7,0,1.2-0.2,1.6-0.4l0.2,1
					c-0.3,0.2-1.1,0.4-2,0.4c-2.1,0-3.5-1.5-3.5-3.6c0-2.2,1.5-3.8,3.8-3.8c0.8,0,1.4,0.2,1.8,0.4L225.4,60.2L225.4,60.2z
					 M232.8,62.8h-5c0,1.8,1.1,2.5,2.4,2.5c0.9,0,1.5-0.2,2-0.4l0.2,0.9c-0.5,0.2-1.2,0.4-2.4,0.4c-2.2,0-3.5-1.4-3.5-3.6
					c0-2.1,1.3-3.8,3.3-3.8c2.3,0,2.9,2,2.9,3.4C232.8,62.5,232.8,62.7,232.8,62.8L232.8,62.8z M229.8,59.8c-1.3,0-1.9,1.2-2,2.1
					h3.8C231.6,61.1,231.2,59.8,229.8,59.8L229.8,59.8z M239.2,66.1V62c0-1.1-0.4-2.1-1.6-2.1c-0.9,0-1.5,0.6-1.7,1.3
					c-0.1,0.2-0.1,0.4-0.1,0.6v4.3h-1.3v-5.2c0-0.7,0-1.3-0.1-1.9h1.1l0.1,1.2l0,0c0.4-0.7,1.2-1.3,2.4-1.3c1,0,2.5,0.6,2.5,3v4.3
					L239.2,66.1L239.2,66.1z M244.1,60v3.8c0,0.9,0.3,1.4,1,1.4c0.3,0,0.6,0,0.8-0.1l0.1,1c-0.3,0.1-0.6,0.2-1.1,0.2
					c-0.6,0-1.1-0.2-1.4-0.5c-0.4-0.4-0.5-1-0.5-1.9V60h-1.1v-1h1.1v-1.7l1.3-0.3v2h1.9v1H244.1L244.1,60z M253,62.8h-5
					c0,1.8,1.1,2.5,2.4,2.5c0.9,0,1.5-0.2,2-0.4l0.2,0.9c-0.5,0.2-1.2,0.4-2.4,0.4c-2.2,0-3.5-1.4-3.5-3.6c0-2.1,1.3-3.8,3.3-3.8
					c2.3,0,2.9,2,2.9,3.4C253.1,62.5,253.1,62.7,253,62.8L253,62.8z M250,59.8c-1.3,0-1.9,1.2-2,2.1h3.8
					C251.8,61.1,251.5,59.8,250,59.8L250,59.8z M257.8,60.1c-0.9,0-1.6,0.7-1.7,1.7c0,0.2-0.1,0.4-0.1,0.6v3.8h-1.3v-4.9
					c0-0.8,0-1.6-0.1-2.2h1.1v1.4h0.1c0.3-1,1.1-1.6,2-1.6c0.1,0,0.2,0,0.4,0v1.2C258.1,60.1,257.9,60.1,257.8,60.1L257.8,60.1z"/>
			</defs>
			<use xlink:href="#SVGID_3_"  style="overflow:visible;fill:#929292;"/>
			<clipPath id="SVGID_4_">
				<use xlink:href="#SVGID_3_"  style="overflow:visible;"/>
			</clipPath>
		</g>
	</g>
	<g>
		<g>
			<defs>
				<path id="SVGID_5_" d="M6.6,35.9c0-16.6,13.5-30.1,30.2-30.1c11.6,0,21.6,6.5,26.7,16.1l-7.4,2.2c-4-6.5-11.1-10.8-19.3-10.8
					c-12.5,0-22.6,10.1-22.6,22.6s10.1,22.6,22.6,22.6c8.2,0,15.3-4.3,19.3-10.8l7.4,2.2C58.5,59.5,48.4,66,36.8,66
					C20.2,66,6.6,52.6,6.6,35.9L6.6,35.9z"/>
			</defs>
			<use xlink:href="#SVGID_5_"  style="overflow:visible;fill:#929292;"/>
			<clipPath id="SVGID_6_">
				<use xlink:href="#SVGID_5_"  style="overflow:visible;"/>
			</clipPath>
		</g>
	</g>
	<g>
		<g>
			<defs>
				<path id="SVGID_7_" d="M55,35.9c0,10.1-8.2,18.4-18.4,18.4c-7.1,0-13.2-4-16.3-9.8l4.5-1.3c2.4,3.9,6.8,6.6,11.8,6.6
					c7.6,0,13.8-6.2,13.8-13.8s-6.2-13.8-13.8-13.8c-5,0-9.3,2.6-11.8,6.6l-4.5-1.3c3.1-5.8,9.2-9.8,16.3-9.8
					C46.8,17.5,55,25.8,55,35.9L55,35.9z"/>
			</defs>
			<use xlink:href="#SVGID_7_"  style="overflow:visible;fill:#929292;"/>
			<clipPath id="SVGID_8_">
				<use xlink:href="#SVGID_7_"  style="overflow:visible;"/>
			</clipPath>
		</g>
	</g>
	<g>
		<g>
			<defs>
				<path id="SVGID_9_" d="M26.1,35.9c0-5.6,4.5-10.1,10.1-10.1c3.9,0,7.3,2.2,9,5.4l-2.5,0.7c-1.3-2.2-3.7-3.6-6.5-3.6
					c-4.2,0-7.6,3.4-7.6,7.6s3.4,7.6,7.6,7.6c2.7,0,5.1-1.4,6.5-3.6l2.5,0.7c-1.7,3.2-5.1,5.4-9,5.4C30.7,46.1,26.1,41.5,26.1,35.9
					L26.1,35.9z"/>
			</defs>
			<use xlink:href="#SVGID_9_"  style="overflow:visible;fill:#929292;"/>
			<clipPath id="SVGID_10_">
				<use xlink:href="#SVGID_9_"  style="overflow:visible;"/>
			</clipPath>
		</g>
	</g>
</g>
</svg>
