<svg xmlns="http://www.w3.org/2000/svg" width="496" height="140" viewBox="0 0 496 140">
    <g fill="#00A82D" fill-rule="evenodd">
        <path d="M109.299 63.086h28.135V15.409h-28.135v47.677zm33.569 15.128h-39.003c-5.346 0-9.695-4.349-9.695-9.695V9.976c0-5.346 4.349-9.695 9.695-9.695h39.003c5.346 0 9.696 4.349 9.696 9.695v58.543c0 5.346-4.35 9.695-9.696 9.695zM486.304 78.214h-44.863V63.086h39.43V60.86l-37.763-33.262a9.665 9.665 0 0 1-3.37-7.349V9.976c0-5.346 4.348-9.695 9.694-9.695h45.486V15.41h-40.052v2.388l37.766 33.264A9.68 9.68 0 0 1 496 58.408V68.52c0 5.346-4.35 9.695-9.696 9.695M248.874 15.407v28.15l28.135-9.434V15.407h-28.136zm42.073 62.807H243.44c-5.346 0-9.696-4.349-9.696-9.695V9.974c0-5.346 4.35-9.695 9.696-9.695h39.002c5.346 0 9.697 4.35 9.697 9.695v28.058a9.69 9.69 0 0 1-6.613 9.193l-36.653 12.29v3.57h42.075v15.13zM222.879 78.214h-15.13V15.41h-29.2v62.804h-15.13V9.977c0-5.346 4.35-9.695 9.695-9.695h40.069c5.346 0 9.696 4.35 9.696 9.695v68.237zM433.23 78.214l-22.063-26.49 11.669-4.236a10.752 10.752 0 0 0 7.224-10.165V9.975c0-5.346-4.349-9.695-9.695-9.695h-39.007c-5.344 0-9.692 4.347-9.695 9.691V78.21h15.126v-62.8h28.143V34.26l-16.204 5.883a9.705 9.705 0 0 0-6.048 6.586 9.704 9.704 0 0 0 1.91 8.732l18.95 22.752h19.69zM15.13 15.411v34.895l28.134-9.434v-25.46H15.13zm0 62.803H0V9.974C0 4.628 4.35.28 9.696.28H48.7c5.346 0 9.695 4.35 9.695 9.695v34.803a9.687 9.687 0 0 1-6.611 9.193L15.128 66.26v11.954zM317.73 15.407v28.15l28.136-9.434V15.407H317.73zm42.076 62.807h-47.51c-5.345 0-9.694-4.349-9.694-9.695V9.974c0-5.346 4.349-9.695 9.695-9.695H351.3c5.346 0 9.696 4.35 9.696 9.695v28.058a9.69 9.69 0 0 1-6.612 9.193l-36.653 12.29v3.57h42.075v15.13zM68.036 78.214h15.266V.281H68.036zM432.893 116.816l13.42-3.019v-5.142h-13.42zM292.325 116.816l13.42-3.019v-5.142h-13.42z"/>
        <path d="M478.709 108.656h-17.681v.463l16.556 9.44.146.123c.622.52.978 1.283.978 2.093v2.846a2.732 2.732 0 0 1-2.729 2.729h-19.201v-4.258h17.672v-.417l-16.557-9.442-.146-.122a2.723 2.723 0 0 1-.977-2.093v-2.891a2.732 2.732 0 0 1 2.729-2.73h19.21v4.259zm-28.137 6.368a2.725 2.725 0 0 1-1.863 2.588l-.208.058-15.608 3.512v.894h17.344v4.258h-18.873a2.732 2.732 0 0 1-2.729-2.73v-16.477a2.732 2.732 0 0 1 2.729-2.73h16.479a2.732 2.732 0 0 1 2.729 2.73v7.897zm-32.785 11.31l-5.334-6.404a2.73 2.73 0 0 1 1.165-4.312l4.56-1.656v-5.306h-13.419l-.009 17.68-4.258-.002.009-19.21a2.732 2.732 0 0 1 2.729-2.726h16.478a2.732 2.732 0 0 1 2.729 2.729v7.698a3.025 3.025 0 0 1-2.034 2.86l-3.285 1.193 6.211 7.457h-5.542zm-23.459-2.712a2.716 2.716 0 0 1-2.713 2.713h-16.483a2.716 2.716 0 0 1-2.713-2.713l.001-19.212h4.231l-.001 17.694h13.447l.001-17.694h4.231l-.001 19.212zm-28.097-14.966h-8.837v17.699h-4.259v-17.7h-8.84v-4.257h21.936v4.258zm-28.133 17.679h-4.231l.001-17.695H320.42l-.001 17.695h-4.231l.001-19.212a2.717 2.717 0 0 1 2.714-2.713h16.482a2.717 2.717 0 0 1 2.714 2.713l-.001 19.212zm-28.094-11.311a2.725 2.725 0 0 1-1.863 2.588l-.208.058-15.608 3.512v.894h17.344v4.258h-18.874a2.732 2.732 0 0 1-2.729-2.73v-16.477a2.732 2.732 0 0 1 2.729-2.73h16.48a2.732 2.732 0 0 1 2.729 2.73v7.897zm-30.866 11.31h-8.339c-.796 0-1.55-.346-2.069-.95l-8.144-9.47a2.733 2.733 0 0 1-.659-1.78V104.4h4.258v9.168l7.315 8.508h6.108V104.4h4.258l.001 19.205a2.732 2.732 0 0 1-2.729 2.729zm207.43-35.295H252.056c-5.187 0-9.431 4.244-9.431 9.43v29.82c0 5.188 4.244 9.432 9.431 9.432h234.512c5.188 0 9.432-4.244 9.432-9.431v-29.82c0-5.187-4.244-9.431-9.432-9.431z"/>
    </g>
</svg>
